<svg width="658" height="700" viewBox="0 0 658 700" fill="none" xmlns="http://www.w3.org/2000/svg">
<path fill-rule="evenodd" clip-rule="evenodd" d="M650.257 366.559C664.622 361.893 700.402 382.018 687.605 398.847C682.384 405.468 669.85 408.567 662.011 410.419C653.13 412.555 632.757 406.277 625.969 410.834C611.604 420.685 598.282 424.411 580.527 427.853C570.341 429.807 559.111 433.329 548.662 432.206C540.306 431.266 525.417 440.074 516.543 441.955C500.61 445.419 483.373 448.131 467.178 448.729C450.203 449.327 426.964 451.281 409.464 448.518C404.761 447.818 399.541 447.059 395.355 445.025C393.532 444.114 390.659 437.989 388.304 439.688C344.955 469.343 270.522 471.53 228.733 439.87C227.691 439.009 204.445 445.885 201.572 446.279C179.376 449.327 166.579 448.284 150.647 436.144C149.342 435.152 134.977 439.06 133.934 439.323C118.52 442.604 102.07 445.885 86.3999 446.724C76.476 447.22 67.5947 445.185 59.2385 440.497C44.3561 432.206 43.051 415.501 37.2979 411.126C25.8062 402.442 1.51764 397.002 5.43323 376.775C9.61865 353.996 44.8738 368.747 52.4499 364.941C54.2728 364.08 54.2728 357.386 55.8405 355.513C61.8489 347.302 76.2134 341.097 85.8749 338.778C90.578 337.663 97.8916 336.197 102.587 336.489C104.68 336.613 110.681 340.266 111.206 339.821C118.257 335.132 122.435 323.116 129.749 317.486C138.63 310.997 149.859 307.402 159.528 302.663C165.529 299.717 174.148 295.91 180.944 296.122C182.774 296.173 191.123 298.645 191.385 298.309C195.833 292.316 195.563 282.122 200.784 275.428C221.157 248.66 267.124 227.916 300.031 230.366C316.488 231.62 338.167 241.259 348.346 254.37C351.226 257.833 361.143 282.253 365.066 283.58C370.811 285.564 388.829 276.755 395.625 275.815C413.38 273.416 431.66 278.396 447.593 286.738C455.949 291.164 465.61 301.671 470.576 309.699C473.974 315.146 470.576 325.697 476.584 327.753C480.762 329.16 491.992 324.056 496.95 324.078C507.661 324.158 512.882 333.878 519.678 338.96C523.069 341.542 554.671 321.993 568.248 317.96C606.646 306.542 630.147 330.415 645.299 361.397C646.079 362.673 650.257 366.559 650.257 366.559Z" fill="#FDFFFE"/>
<mask id="mask0_215_47369" style="mask-type:luminance" maskUnits="userSpaceOnUse" x="21" y="332" width="667" height="131">
<path d="M687.889 332.267H21.4891V462.933H687.889V332.267Z" fill="white"/>
</mask>
<g mask="url(#mask0_215_47369)">
<mask id="mask1_215_47369" style="mask-type:luminance" maskUnits="userSpaceOnUse" x="5" y="230" width="686" height="233">
<path fill-rule="evenodd" clip-rule="evenodd" d="M650.264 366.559C664.629 361.893 700.402 382.018 687.605 398.847C682.377 405.468 669.849 408.567 662.018 410.419C653.13 412.555 632.764 406.277 625.968 410.834C611.611 420.685 598.289 424.411 580.527 427.853C570.333 429.807 559.118 433.329 548.662 432.206C540.306 431.266 525.416 440.074 516.542 441.955C500.61 445.419 483.372 448.131 467.178 448.729C450.203 449.327 426.964 451.281 409.464 448.518C404.768 447.818 399.54 447.059 395.355 445.025C393.532 444.114 390.659 437.989 388.311 439.688C344.955 469.343 270.521 471.53 228.733 439.87C227.69 439.009 204.444 445.885 201.579 446.279C179.368 449.327 166.579 448.284 150.646 436.144C149.341 435.152 134.977 439.06 133.927 439.323C118.519 442.604 102.069 445.885 86.3995 446.724C76.4682 447.22 67.587 445.185 59.238 440.497C44.3557 432.206 43.0432 415.501 37.2974 411.126C25.8057 402.442 1.52448 397.002 5.4328 376.775C9.61823 353.996 44.8734 368.747 52.4495 364.941C54.2723 364.08 54.2723 357.386 55.8401 355.513C61.8484 347.302 76.213 341.097 85.8745 338.778C90.5776 337.663 97.8911 336.197 102.587 336.489C104.68 336.613 110.688 340.266 111.213 339.821C118.264 335.132 122.435 323.116 129.748 317.486C138.63 310.997 149.859 307.402 159.528 302.663C165.536 299.717 174.147 295.91 180.943 296.122C182.773 296.173 191.122 298.645 191.385 298.309C195.826 292.316 195.563 282.122 200.784 275.428C221.164 248.66 267.123 227.916 300.031 230.366C316.488 231.62 338.166 241.259 348.345 254.37C351.218 257.833 361.149 282.253 365.058 283.58C370.811 285.564 388.829 276.755 395.624 275.815C413.372 273.416 431.66 278.396 447.592 286.738C455.948 291.164 465.61 301.671 470.568 309.699C473.973 315.146 470.568 325.697 476.584 327.753C480.762 329.16 491.991 324.056 496.957 324.078C507.661 324.158 512.882 333.878 519.678 338.96C523.068 341.542 554.67 321.993 568.247 317.96C606.645 306.542 630.146 330.415 645.298 361.397C646.079 362.673 650.264 366.559 650.264 366.559Z" fill="white"/>
</mask>
<g mask="url(#mask1_215_47369)">
<path fill-rule="evenodd" clip-rule="evenodd" d="M675.588 408.545C667.757 389.988 637.46 404.403 625.706 395.595C623.095 393.633 623.62 386.393 622.315 383.447C614.214 367.289 591.231 362.053 575.306 362.885C570.078 363.147 527.509 363.745 528.814 371.926C528.814 373.261 536.128 369.841 549.712 374.456C552.84 375.47 560.416 377.898 557.806 379.67C552.84 382.9 538.22 380.188 532.467 380.399C513.144 381.099 493.296 379.619 473.973 380.319C470.576 380.421 454.118 384.358 451.77 382.455C448.117 379.75 469.008 372.24 460.914 364.08C437.668 340.681 405.286 325.464 372.116 335.701C364.015 338.282 351.226 341.381 347.04 349.935C344.43 355.644 358.532 350.583 363.497 351.291C372.634 352.589 381.778 355.403 390.659 358.378C397.965 360.828 412.6 377.482 408.159 373.99C396.66 365.335 369.236 376.126 360.887 384.935C359.582 386.342 352.786 397.731 352.006 397.855C351.743 397.885 347.565 392.7 346.522 392.285C341.294 390.039 333.981 389.258 328.242 389.412C310.217 389.856 270.259 399.999 259.547 414.094L257.725 414.327C245.708 412.06 235.004 401.581 222.987 397.469C217.504 395.646 210.978 394.807 205.232 394.472C201.834 394.261 192.172 397.024 194.52 394.158C208.105 376.36 244.928 396.266 251.454 395.383C253.546 395.099 257.462 385.401 258.767 383.578C262.945 378.161 270.784 373.829 277.31 372.969C280.97 372.451 292.462 373.516 288.802 372.269C252.759 359.99 231.088 351.728 191.647 353.165C180.418 353.58 164.223 353.558 154.562 359.129C153.775 359.552 141.765 367.887 142.29 367.996C142.808 368.098 172.58 367.836 168.927 372.451C164.748 378.08 146.468 379.196 139.935 384.49C138.105 385.977 126.351 404.294 124.528 402.814C119.825 399.321 124.528 383.914 118.519 379.327C115.129 376.775 101.807 380.713 98.1537 381.23C77.5182 384.023 59.7557 387.931 41.738 397.914C36.5172 400.699 22.6703 403.878 21.8901 411.411C20.585 423.42 40.9578 436.115 48.5266 441.955C92.9255 475.439 116.696 474.921 171.019 472.055C233.698 468.745 292.192 489.227 354.871 491.05C420.431 492.982 483.11 478.961 547.619 470.123C583.662 465.223 620.222 464.727 656.265 459.805C659.656 459.339 684.994 450.764 686.555 452.062C688.385 453.338 675.588 408.545 675.588 408.545Z" fill="#D8E8F5"/>
</g>
</g>
<mask id="mask2_215_47369" style="mask-type:luminance" maskUnits="userSpaceOnUse" x="219" y="259" width="122" height="87">
<path d="M340.689 259.467H219.356V345.333H340.689V259.467Z" fill="white"/>
</mask>
<g mask="url(#mask2_215_47369)">
<mask id="mask3_215_47369" style="mask-type:luminance" maskUnits="userSpaceOnUse" x="5" y="230" width="686" height="233">
<path fill-rule="evenodd" clip-rule="evenodd" d="M650.265 366.559C664.629 361.893 700.402 382.018 687.605 398.847C682.377 405.468 669.85 408.567 662.019 410.419C653.13 412.555 632.765 406.277 625.969 410.834C611.611 420.685 598.29 424.411 580.527 427.853C570.333 429.807 559.119 433.329 548.662 432.206C540.306 431.266 525.417 440.074 516.543 441.955C500.61 445.419 483.373 448.131 467.178 448.729C450.203 449.327 426.965 451.281 409.465 448.518C404.769 447.818 399.541 447.059 395.355 445.025C393.532 444.114 390.659 437.989 388.311 439.688C344.955 469.343 270.522 471.53 228.733 439.87C227.691 439.009 204.445 445.885 201.579 446.279C179.369 449.327 166.579 448.284 150.647 436.144C149.342 435.152 134.977 439.06 133.927 439.323C118.52 442.604 102.07 445.885 86.4 446.724C76.4687 447.22 67.5875 445.185 59.2385 440.497C44.3562 432.206 43.0437 415.501 37.2979 411.126C25.8062 402.442 1.52496 397.002 5.43329 376.775C9.61871 353.996 44.8739 368.747 52.45 364.941C54.2728 364.08 54.2728 357.386 55.8406 355.513C61.8489 347.302 76.2135 341.097 85.8749 338.778C90.5781 337.663 97.8916 336.197 102.587 336.489C104.68 336.613 110.688 340.266 111.214 339.821C118.265 335.132 122.435 323.116 129.749 317.486C138.63 310.997 149.859 307.402 159.528 302.663C165.536 299.717 174.148 295.91 180.944 296.122C182.774 296.173 191.123 298.645 191.385 298.309C195.826 292.316 195.563 282.122 200.784 275.428C221.165 248.66 267.124 227.916 300.031 230.366C316.489 231.62 338.167 241.259 348.346 254.37C351.219 257.833 361.15 282.253 365.058 283.58C370.811 285.564 388.829 276.755 395.625 275.815C413.373 273.416 431.66 278.396 447.593 286.738C455.949 291.164 465.61 301.671 470.569 309.699C473.974 315.146 470.569 325.697 476.584 327.753C480.762 329.16 491.992 324.056 496.957 324.078C507.661 324.158 512.882 333.878 519.678 338.96C523.069 341.542 554.671 321.993 568.248 317.96C606.646 306.542 630.147 330.415 645.299 361.397C646.079 362.673 650.265 366.559 650.265 366.559Z" fill="white"/>
</mask>
<g mask="url(#mask3_215_47369)">
<path fill-rule="evenodd" clip-rule="evenodd" d="M323.802 316.29C326.413 315.714 337.897 308.182 339.99 311.31C342.863 315.32 324.582 326.71 321.709 329.109C320.142 330.443 310.218 345.428 309.438 345.165C299.769 341.877 291.938 335.861 281.226 335.547C277.828 335.445 273.913 337.713 272.09 334.971C265.556 325.514 268.692 318.609 255.377 311.179C249.106 307.795 241.793 303.282 235.004 301.357C233.174 300.861 219.072 299.979 219.852 297.106C234.479 254.471 313.616 245.875 338.684 282.668C338.947 282.931 338.947 283.273 338.947 283.558C335.556 293.562 313.091 299.169 314.921 312.929C315.183 314.773 323.802 316.29 323.802 316.29Z" fill="#D8E8F5"/>
</g>
</g>
</svg>
